<?xml version="1.0" standalone="no"?>
<!DOCTYPE svg PUBLIC "-//W3C//DTD SVG 20010904//EN"
 "http://www.w3.org/TR/2001/REC-SVG-20010904/DTD/svg10.dtd">
<svg version="1.0" xmlns="http://www.w3.org/2000/svg"
 width="512.000000pt" height="512.000000pt" viewBox="0 0 2048 2048"
 preserveAspectRatio="xMidYMid meet">
<metadata>
</metadata>
<g 
fill="#ffff">
<path d="M1024 0q141 0 272 36t244 104 207 160 161 207 103 245 37 272q0 141-36 272t-104 244-160 207-207 161-245 103-272 37q-141 0-272-36t-244-104-207-160-161-207-103-245-37-272q0-141 36-272t104-244 160-207 207-161T752 37t272-37zM907 1347q22 0 "></path>
</g>
</svg>